<svg xmlns="http://www.w3.org/2000/svg" xmlns:xlink="http://www.w3.org/1999/xlink" width="500" zoomAndPan="magnify" viewBox="0 0 375 149.999998" height="200" preserveAspectRatio="xMidYMid meet" version="1.0"><defs><g/><clipPath id="2ffa58d141"><rect x="0" width="375" y="0" height="131"/></clipPath></defs><g transform="matrix(1, 0, 0, 1, 0, 6)"><g clip-path="url(#2ffa58d141)"><g fill="#fffff0" fill-opacity="1"><g transform="translate(17.855485, 65.104738)"><g><path d="M -11.984375 -23.53125 L -2.421875 -29.703125 L -1.078125 -27.640625 L -8.3125 -22.96875 L -3.25 -15.125 L 3.0625 -19.203125 L 4.40625 -17.125 L -1.90625 -13.046875 L 3.25 -5.046875 L 10.484375 -9.71875 L 11.828125 -7.640625 L 2.265625 -1.46875 Z M -11.984375 -23.53125 "/></g></g></g><g fill="#fffff0" fill-opacity="1"><g transform="translate(29.805092, 57.227672)"><g><path d="M -4.484375 -21.4375 C -3.222656 -22.851562 -1.941406 -23.878906 -0.640625 -24.515625 C 0.660156 -25.148438 1.925781 -25.265625 3.15625 -24.859375 C 4.394531 -24.453125 5.375 -23.507812 6.09375 -22.03125 L 13.59375 -6.609375 L 11.109375 -5.40625 L 3.71875 -20.59375 C 2.882812 -22.3125 1.597656 -22.75 -0.140625 -21.90625 C -1.234375 -21.363281 -2.273438 -20.46875 -3.265625 -19.21875 L 4.921875 -2.390625 L 2.4375 -1.1875 L -7.296875 -21.203125 L -4.921875 -22.359375 Z M -4.484375 -21.4375 "/></g></g></g><g fill="#fffff0" fill-opacity="1"><g transform="translate(44.901802, 50.096932)"><g/></g></g><g fill="#fffff0" fill-opacity="1"><g transform="translate(50.917837, 47.570564)"><g><path d="M 5.390625 -28.828125 L 8.171875 -29.609375 L 9.78125 -2.765625 L 6.015625 -1.703125 L -6.640625 -25.421875 L -3.90625 -26.1875 L 2.3125 -14.390625 C 4.695312 -9.617188 6.3125 -6.429688 7.15625 -4.828125 C 7.070312 -5.890625 6.925781 -7.710938 6.71875 -10.296875 C 6.488281 -13.140625 6.046875 -19.316406 5.390625 -28.828125 Z M 5.390625 -28.828125 "/></g></g></g><g fill="#fffff0" fill-opacity="1"><g transform="translate(65.382654, 43.293797)"><g><path d="M 9.890625 -28 L 12.671875 -28.40625 L 16.484375 -2.421875 L 13.703125 -2.015625 L 12.015625 -13.546875 L 3.71875 -12.328125 L 5.40625 -0.796875 L 2.671875 -0.390625 L -1.140625 -26.375 L 1.59375 -26.78125 L 3.359375 -14.75 L 11.65625 -15.96875 Z M 9.890625 -28 "/></g></g></g><g fill="#fffff0" fill-opacity="1"><g transform="translate(83.266238, 40.710255)"><g><path d="M 2.203125 -26.3125 L 13.578125 -26.53125 L 13.625 -24.078125 L 5.015625 -23.921875 L 5.1875 -14.578125 L 12.703125 -14.71875 L 12.75 -12.25 L 5.234375 -12.109375 L 5.421875 -2.578125 L 14.03125 -2.734375 L 14.078125 -0.265625 L 2.703125 -0.046875 Z M 2.203125 -26.3125 "/></g></g></g><g fill="#fffff0" fill-opacity="1"><g transform="translate(97.707118, 40.426891)"><g><path d="M 15.5625 -25.015625 L 15.359375 -22.5625 L 10.296875 -23 L 8.21875 0.71875 L 5.421875 0.46875 L 7.5 -23.25 L 2.4375 -23.6875 L 2.640625 -26.140625 Z M 15.5625 -25.015625 "/></g></g></g><g fill="#fffff0" fill-opacity="1"><g transform="translate(110.209541, 41.331231)"><g><path d="M 11.265625 -8.46875 L 7.46875 -9.25 L 5.359375 1.09375 L 2.640625 0.546875 L 7.90625 -25.1875 L 14.140625 -23.921875 C 16.191406 -23.503906 17.632812 -22.671875 18.46875 -21.421875 C 19.300781 -20.179688 19.535156 -18.671875 19.171875 -16.890625 L 18.40625 -13.09375 C 17.832031 -10.332031 16.363281 -8.769531 14 -8.40625 L 15.890625 3.25 L 12.90625 2.640625 Z M 7.953125 -11.625 L 11.359375 -10.921875 C 13.765625 -10.429688 15.207031 -11.347656 15.6875 -13.671875 L 16.4375 -17.3125 C 16.90625 -19.632812 15.9375 -21.039062 13.53125 -21.53125 L 10.125 -22.234375 Z M 7.953125 -11.625 "/></g></g></g><g fill="#fffff0" fill-opacity="1"><g transform="translate(126.471352, 44.59635)"><g><path d="M 12.953125 4.421875 L 13.8125 -3.046875 L 7.15625 -5.328125 L 3.25 1.109375 L 0.640625 0.21875 L 14.734375 -22.71875 L 18.4375 -21.46875 L 15.578125 5.3125 Z M 8.40625 -7.453125 L 14.0625 -5.53125 L 15.671875 -19.5625 Z M 8.40625 -7.453125 "/></g></g></g><g fill="#fffff0" fill-opacity="1"><g transform="translate(141.753263, 49.996594)"><g/></g></g><g fill="#fffff0" fill-opacity="1"><g transform="translate(147.988943, 52.736563)"><g><path d="M 15.265625 -23.796875 L 17.71875 -22.53125 L 4.859375 2.5 L 2.40625 1.234375 Z M 15.265625 -23.796875 "/></g></g></g><g fill="#fffff0" fill-opacity="1"><g transform="translate(154.548858, 55.81669)"><g><path d="M 19.203125 -7.390625 C 20.503906 -9.429688 20.140625 -11.09375 18.109375 -12.375 C 16.085938 -13.664062 14.425781 -13.289062 13.125 -11.25 L 7.3125 -2.109375 C 6 -0.046875 6.351562 1.625 8.375 2.90625 C 10.40625 4.195312 12.078125 3.8125 13.390625 1.75 Z M 10.859375 -12.75 C 11.847656 -14.300781 13.078125 -15.257812 14.546875 -15.625 C 16.015625 -15.988281 17.644531 -15.597656 19.4375 -14.453125 C 21.238281 -13.304688 22.285156 -11.988281 22.578125 -10.5 C 22.867188 -9.019531 22.519531 -7.503906 21.53125 -5.953125 L 15.671875 3.25 C 14.671875 4.8125 13.4375 5.773438 11.96875 6.140625 C 10.507812 6.503906 8.878906 6.113281 7.078125 4.96875 C 5.285156 3.820312 4.238281 2.503906 3.9375 1.015625 C 3.644531 -0.460938 4 -1.984375 5 -3.546875 Z M 10.859375 -12.75 "/></g></g></g><g fill="#fffff0" fill-opacity="1"><g transform="translate(176.324817, 71.174756)"><g><path d="M 22.09375 -6.59375 L 19.71875 -8.734375 C 17.875 -10.390625 16.203125 -10.390625 14.703125 -8.734375 L 7.5625 -0.8125 C 6.09375 0.8125 6.144531 2.332031 7.71875 3.75 C 8.882812 4.789062 10.109375 5.296875 11.390625 5.265625 Z M 27.75 -12.859375 L 29.828125 -10.984375 L 10.984375 9.90625 L 8.96875 8.09375 L 9.84375 7.125 C 8.34375 7.050781 6.941406 6.425781 5.640625 5.25 C 4.335938 4.082031 3.664062 2.828125 3.625 1.484375 C 3.59375 0.148438 4.175781 -1.179688 5.375 -2.515625 L 12.6875 -10.609375 C 13.925781 -11.984375 15.296875 -12.6875 16.796875 -12.71875 C 18.304688 -12.757812 19.738281 -12.171875 21.09375 -10.953125 L 23.8125 -8.5 Z M 27.75 -12.859375 "/></g></g></g><g fill="#fffff0" fill-opacity="1"><g transform="translate(190.295664, 83.372347)"><g><path d="M 17.84375 -17.609375 C 16.9375 -18.273438 16.835938 -19.09375 17.546875 -20.0625 C 18.253906 -21.03125 19.0625 -21.179688 19.96875 -20.515625 C 20.882812 -19.847656 20.988281 -19.03125 20.28125 -18.0625 C 19.570312 -17.09375 18.757812 -16.941406 17.84375 -17.609375 Z M 15.171875 -16.28125 L 17.40625 -14.65625 L 4.421875 3.21875 L 2.1875 1.59375 Z M 15.171875 -16.28125 "/></g></g></g><g fill="#fffff0" fill-opacity="1"><g transform="translate(197.681637, 88.968498)"><g><path d="M 25.03125 -10.0625 L 23.890625 -10.734375 C 23.296875 -11.066406 22.703125 -11.210938 22.109375 -11.171875 C 22.316406 -9.921875 22.03125 -8.617188 21.25 -7.265625 L 19.6875 -4.5625 C 18.800781 -3.03125 17.644531 -2.09375 16.21875 -1.75 C 14.800781 -1.414062 13.148438 -1.785156 11.265625 -2.859375 C 9.972656 -3.597656 8.976562 -3.363281 8.28125 -2.15625 C 7.96875 -1.625 7.910156 -1.132812 8.109375 -0.6875 C 8.304688 -0.25 8.800781 0.195312 9.59375 0.65625 L 11.59375 1.8125 C 14.675781 3.59375 15.460938 5.789062 13.953125 8.40625 L 13.703125 8.859375 C 12.035156 11.742188 9.160156 12.007812 5.078125 9.65625 L 3.703125 8.859375 C 1.421875 7.535156 -0.132812 6.171875 -0.96875 4.765625 L 0.359375 2.453125 C 1.359375 4.148438 2.875 5.585938 4.90625 6.765625 L 6.125 7.46875 C 8.78125 9 10.539062 9.019531 11.40625 7.53125 L 11.59375 7.1875 C 11.96875 6.53125 12.085938 5.941406 11.953125 5.421875 C 11.828125 4.910156 11.269531 4.367188 10.28125 3.796875 L 8.234375 2.625 C 6.878906 1.84375 5.984375 0.992188 5.546875 0.078125 C 5.109375 -0.828125 5.160156 -1.753906 5.703125 -2.703125 L 6.015625 -3.25 C 6.359375 -3.832031 6.800781 -4.222656 7.34375 -4.421875 C 7.894531 -4.617188 8.460938 -4.640625 9.046875 -4.484375 C 7.171875 -6.410156 6.945312 -8.613281 8.375 -11.09375 L 9.9375 -13.796875 C 10.832031 -15.335938 12 -16.273438 13.4375 -16.609375 C 14.882812 -16.953125 16.476562 -16.625 18.21875 -15.625 C 19.957031 -14.625 21.09375 -13.5625 21.625 -12.4375 C 22.851562 -13.53125 24.265625 -13.613281 25.859375 -12.6875 L 26.375 -12.390625 Z M 17.28125 -5.953125 L 18.84375 -8.65625 C 19.40625 -9.632812 19.570312 -10.503906 19.34375 -11.265625 C 19.113281 -12.035156 18.421875 -12.753906 17.265625 -13.421875 C 16.109375 -14.085938 15.140625 -14.328125 14.359375 -14.140625 C 13.578125 -13.960938 12.90625 -13.382812 12.34375 -12.40625 L 10.78125 -9.703125 C 10.226562 -8.734375 10.066406 -7.863281 10.296875 -7.09375 C 10.523438 -6.332031 11.21875 -5.617188 12.375 -4.953125 C 13.53125 -4.285156 14.5 -4.039062 15.28125 -4.21875 C 16.0625 -4.40625 16.726562 -4.984375 17.28125 -5.953125 Z M 17.28125 -5.953125 "/></g></g></g><g fill="#fffff0" fill-opacity="1"><g transform="translate(213.891138, 97.976447)"><g><path d="M 13.78125 -20.96875 C 12.75 -21.425781 12.472656 -22.203125 12.953125 -23.296875 C 13.441406 -24.390625 14.203125 -24.707031 15.234375 -24.25 C 16.265625 -23.789062 16.535156 -23.015625 16.046875 -21.921875 C 15.566406 -20.828125 14.8125 -20.507812 13.78125 -20.96875 Z M 11.4375 -19.09375 L 13.96875 -17.96875 L 5 2.21875 L 2.46875 1.09375 Z M 11.4375 -19.09375 "/></g></g></g><g fill="#fffff0" fill-opacity="1"><g transform="translate(222.098482, 101.656241)"><g><path d="M 13.828125 -22.984375 L 12.5 -19.1875 L 17.1875 -17.53125 L 16.375 -15.203125 L 11.6875 -16.859375 L 6.75 -2.84375 C 6.457031 -1.988281 6.453125 -1.296875 6.734375 -0.765625 C 7.023438 -0.234375 7.597656 0.179688 8.453125 0.484375 C 9.316406 0.785156 10.203125 0.941406 11.109375 0.953125 L 10.265625 3.359375 C 9.191406 3.253906 8.226562 3.050781 7.375 2.75 C 4.070312 1.59375 2.96875 -0.546875 4.0625 -3.671875 L 9.03125 -17.78125 L 6.75 -18.59375 L 7.5625 -20.921875 L 9.953125 -20.078125 L 12.015625 -23.609375 Z M 13.828125 -22.984375 "/></g></g></g><g fill="#fffff0" fill-opacity="1"><g transform="translate(233.928744, 105.899665)"><g><path d="M 5.265625 -5.296875 L 5 -4.15625 C 4.769531 -3.132812 4.835938 -2.328125 5.203125 -1.734375 C 5.578125 -1.148438 6.4375 -0.703125 7.78125 -0.390625 C 9.132812 -0.0859375 10.523438 -0.296875 11.953125 -1.015625 L 13.5625 -8.15625 L 8.921875 -7.921875 C 7.710938 -7.835938 6.847656 -7.601562 6.328125 -7.21875 C 5.816406 -6.832031 5.460938 -6.191406 5.265625 -5.296875 Z M 12.25 -20.21875 C 16.570312 -19.238281 18.3125 -16.90625 17.46875 -13.21875 L 13.765625 3.125 L 11.171875 2.53125 L 11.53125 0.96875 C 9.96875 1.820312 8.285156 2.046875 6.484375 1.640625 C 2.953125 0.835938 1.582031 -1.304688 2.375 -4.796875 L 2.640625 -6.015625 C 3.242188 -8.648438 5.1875 -10.050781 8.46875 -10.21875 L 14.125 -10.515625 L 14.875 -13.8125 C 15.09375 -14.863281 14.972656 -15.695312 14.515625 -16.3125 C 14.066406 -16.925781 13 -17.421875 11.3125 -17.796875 C 9.625 -18.179688 8.007812 -18.28125 6.46875 -18.09375 L 7.046875 -20.65625 C 8.609375 -20.800781 10.34375 -20.65625 12.25 -20.21875 Z M 12.25 -20.21875 "/></g></g></g><g fill="#fffff0" fill-opacity="1"><g transform="translate(251.197305, 109.541274)"><g><path d="M 6.09375 -27.609375 L 8.828125 -27.28125 L 5.421875 0.65625 L 2.6875 0.328125 Z M 6.09375 -27.609375 "/></g></g></g><g fill="#fffff0" fill-opacity="1"><g transform="translate(259.958956, 110.575975)"><g/></g></g><g fill="#fffff0" fill-opacity="1"><g transform="translate(268.109692, 111.084643)"><g><path d="M 9.484375 -22.546875 L 10.46875 -22.5625 L 10.515625 -19.90625 L 9.171875 -19.875 C 8.234375 -19.863281 7.394531 -19.597656 6.65625 -19.078125 C 6.414062 -18.921875 5.910156 -18.5625 5.140625 -18 L 5.46875 -0.09375 L 2.703125 -0.046875 L 2.296875 -22.296875 L 4.953125 -22.34375 L 4.984375 -20.65625 C 5.054688 -20.707031 5.253906 -20.851562 5.578125 -21.09375 C 5.898438 -21.34375 6.09375 -21.488281 6.15625 -21.53125 C 6.21875 -21.570312 6.382812 -21.671875 6.65625 -21.828125 C 6.925781 -21.992188 7.128906 -22.09375 7.265625 -22.125 C 7.410156 -22.164062 7.613281 -22.234375 7.875 -22.328125 C 8.269531 -22.453125 8.804688 -22.523438 9.484375 -22.546875 Z M 9.484375 -22.546875 "/></g></g></g><g fill="#fffff0" fill-opacity="1"><g transform="translate(280.371204, 110.963999)"><g><path d="M 1.546875 -5.9375 L 0.09375 -16.703125 C -0.15625 -18.535156 0.164062 -20.070312 1.0625 -21.3125 C 1.957031 -22.550781 3.460938 -23.3125 5.578125 -23.59375 C 7.703125 -23.875 9.34375 -23.535156 10.5 -22.578125 C 11.664062 -21.617188 12.375 -20.222656 12.625 -18.390625 L 13.53125 -11.640625 L 3.703125 -10.3125 L 4.234375 -6.40625 C 4.390625 -5.25 4.863281 -4.4375 5.65625 -3.96875 C 6.457031 -3.5 7.617188 -3.363281 9.140625 -3.5625 C 10.660156 -3.769531 12.207031 -4.210938 13.78125 -4.890625 L 14.125 -2.34375 C 12.894531 -1.738281 11.382812 -1.316406 9.59375 -1.078125 C 4.75 -0.429688 2.066406 -2.050781 1.546875 -5.9375 Z M 3.390625 -12.609375 L 10.59375 -13.578125 L 10 -18.03125 C 9.675781 -20.457031 8.3125 -21.507812 5.90625 -21.1875 C 3.507812 -20.863281 2.472656 -19.488281 2.796875 -17.0625 Z M 3.390625 -12.609375 "/></g></g></g><g fill="#fffff0" fill-opacity="1"><g transform="translate(298.541727, 108.342155)"><g><path d="M -3.328125 -16.703125 C -3.804688 -18.472656 -3.65625 -19.925781 -2.875 -21.0625 C -2.101562 -22.195312 -0.570312 -23.070312 1.71875 -23.6875 C 3.125 -24.0625 4.582031 -24.226562 6.09375 -24.1875 L 6.765625 -21.671875 C 5.378906 -21.796875 3.925781 -21.65625 2.40625 -21.25 C 0.894531 -20.84375 -0.0625 -20.347656 -0.46875 -19.765625 C -0.882812 -19.179688 -0.953125 -18.367188 -0.671875 -17.328125 L -0.40625 -16.34375 C -0.195312 -15.539062 0.117188 -14.96875 0.546875 -14.625 C 0.984375 -14.289062 1.679688 -14.050781 2.640625 -13.90625 L 6.296875 -13.1875 C 8.867188 -12.675781 10.414062 -11.4375 10.9375 -9.46875 L 11.21875 -8.46875 C 12.15625 -4.925781 10.34375 -2.546875 5.78125 -1.328125 C 4.070312 -0.867188 2.507812 -0.675781 1.09375 -0.75 L 0.421875 -3.234375 C 1.859375 -3.128906 3.375 -3.289062 4.96875 -3.71875 C 6.570312 -4.15625 7.628906 -4.703125 8.140625 -5.359375 C 8.660156 -6.023438 8.789062 -6.832031 8.53125 -7.78125 L 8.328125 -8.546875 C 8.140625 -9.242188 7.828125 -9.742188 7.390625 -10.046875 C 6.953125 -10.359375 6.191406 -10.609375 5.109375 -10.796875 L 1.453125 -11.484375 C -0.921875 -11.921875 -2.398438 -13.234375 -2.984375 -15.421875 Z M -3.328125 -16.703125 "/></g></g></g><g fill="#fffff0" fill-opacity="1"><g transform="translate(313.480063, 104.367588)"><g><path d="M 5.015625 -20.328125 C 4.285156 -22.097656 3.03125 -22.617188 1.25 -21.890625 C 0.09375 -21.410156 -1.015625 -20.578125 -2.078125 -19.390625 L 4.09375 -4.4375 L 7.125 -5.6875 C 9.363281 -6.613281 10.039062 -8.144531 9.15625 -10.28125 Z M -3.125 -21.640625 C -1.8125 -22.992188 -0.476562 -23.953125 0.875 -24.515625 C 2.226562 -25.078125 3.515625 -25.117188 4.734375 -24.640625 C 5.960938 -24.171875 6.890625 -23.175781 7.515625 -21.65625 L 11.84375 -11.1875 C 12.539062 -9.5 12.597656 -7.976562 12.015625 -6.625 C 11.429688 -5.269531 10.328125 -4.257812 8.703125 -3.59375 L 5.0625 -2.078125 L 7.28125 3.3125 L 4.71875 4.359375 L -5.984375 -21.59375 L -3.53125 -22.609375 Z M -3.125 -21.640625 "/></g></g></g><g fill="#fffff0" fill-opacity="1"><g transform="translate(330.506557, 97.018207)"><g><path d="M -8.1875 -23.703125 C -9.175781 -23.171875 -9.957031 -23.429688 -10.53125 -24.484375 C -11.101562 -25.535156 -10.894531 -26.328125 -9.90625 -26.859375 C -8.914062 -27.398438 -8.132812 -27.144531 -7.5625 -26.09375 C -6.988281 -25.039062 -7.195312 -24.242188 -8.1875 -23.703125 Z M -8.140625 -20.703125 L -5.703125 -22.03125 L 4.8125 -2.609375 L 2.375 -1.28125 Z M -8.140625 -20.703125 "/></g></g></g><g fill="#fffff0" fill-opacity="1"><g transform="translate(338.415814, 92.763602)"><g><path d="M -3.875 -24.140625 L -3.046875 -24.6875 L -1.59375 -22.453125 L -2.71875 -21.71875 C -3.507812 -21.207031 -4.082031 -20.539062 -4.4375 -19.71875 C -4.550781 -19.445312 -4.789062 -18.875 -5.15625 -18 L 4.59375 -2.96875 L 2.265625 -1.46875 L -9.84375 -20.140625 L -7.609375 -21.59375 L -6.6875 -20.171875 C -6.65625 -20.242188 -6.5625 -20.46875 -6.40625 -20.84375 C -6.257812 -21.226562 -6.171875 -21.453125 -6.140625 -21.515625 C -6.117188 -21.585938 -6.035156 -21.765625 -5.890625 -22.046875 C -5.742188 -22.328125 -5.617188 -22.519531 -5.515625 -22.625 C -5.421875 -22.738281 -5.285156 -22.898438 -5.109375 -23.109375 C -4.847656 -23.429688 -4.4375 -23.773438 -3.875 -24.140625 Z M -3.875 -24.140625 "/></g></g></g><g fill="#fffff0" fill-opacity="1"><g transform="translate(348.736381, 86.179596)"><g><path d="M -0.96875 -7.40625 L -0.234375 -6.5 C 0.429688 -5.695312 1.113281 -5.257812 1.8125 -5.1875 C 2.507812 -5.113281 3.390625 -5.515625 4.453125 -6.390625 C 5.515625 -7.273438 6.195312 -8.503906 6.5 -10.078125 L 1.84375 -15.71875 L -0.78125 -11.90625 C -1.476562 -10.90625 -1.828125 -10.082031 -1.828125 -9.4375 C -1.835938 -8.789062 -1.550781 -8.113281 -0.96875 -7.40625 Z M -8.5 -22.078125 C -5.082031 -24.890625 -2.171875 -24.832031 0.234375 -21.90625 L 10.890625 -8.96875 L 8.84375 -7.28125 L 7.828125 -8.53125 C 7.535156 -6.769531 6.675781 -5.300781 5.25 -4.125 C 2.457031 -1.820312 -0.0703125 -2.050781 -2.34375 -4.8125 L -3.140625 -5.78125 C -4.859375 -7.875 -4.78125 -10.257812 -2.90625 -12.9375 L 0.34375 -17.609375 L -1.8125 -20.21875 C -2.519531 -21.039062 -3.25 -21.457031 -4 -21.46875 C -4.757812 -21.476562 -5.804688 -20.929688 -7.140625 -19.828125 C -8.484375 -18.734375 -9.550781 -17.523438 -10.34375 -16.203125 L -12.015625 -18.21875 C -11.179688 -19.539062 -10.007812 -20.828125 -8.5 -22.078125 Z M -8.5 -22.078125 "/></g></g></g><g fill="#fffff0" fill-opacity="1"><g transform="translate(362.099323, 74.800864)"><g><path d="M 2.265625 -1.90625 C 1.460938 -1.101562 0.644531 -1.125 -0.1875 -1.96875 C -1.03125 -2.8125 -1.046875 -3.632812 -0.234375 -4.4375 C 0.566406 -5.238281 1.382812 -5.21875 2.21875 -4.375 C 3.0625 -3.53125 3.078125 -2.707031 2.265625 -1.90625 Z M 2.265625 -1.90625 "/></g></g></g></g></g></svg>