<svg width="221" height="63" viewBox="0 0 221 63" fill="none" xmlns="http://www.w3.org/2000/svg">
<g filter="url(#filter0_d_414_263)">
<g filter="url(#filter1_d_414_263)">
<path d="M20.06 55C19.3634 55 18.7767 54.7983 18.3 54.395C17.86 53.9917 17.475 53.35 17.145 52.47L4.00004 16.5H8.18004L20.17 50.105H20.225L32.27 16.5H36.45L22.15 55H20.06ZM42.0484 16.5H46.1184V33.77H67.3484V16.5H71.4184V55H67.3484V37.4H46.1184V55H42.0484V16.5ZM83.8119 55C82.6752 55 81.7952 54.6883 81.1719 54.065C80.5486 53.405 80.2369 52.5067 80.2369 51.37V16.5H106.087V20.02H84.3069V33.55H104.437V37.07H84.3069V51.48H106.087V55H83.8119ZM122.675 20.02H110.465V16.5H138.955V20.02H126.745V55H122.675V20.02ZM145.012 16.5H163.712C166.536 16.5 168.791 17.3067 170.477 18.92C172.201 20.4967 173.062 22.5867 173.062 25.19V29.205C173.062 31.1483 172.439 32.8717 171.192 34.375C169.946 35.8417 168.277 36.8867 166.187 37.51V37.565C167.287 38.1517 168.277 39.0867 169.157 40.37C170.074 41.6533 170.771 43.1017 171.247 44.715L174.272 55H170.092L167.067 44.715C166.554 42.9183 165.656 41.47 164.372 40.37C163.126 39.27 161.751 38.72 160.247 38.72H149.082V55H145.012V16.5ZM162.282 35.09C164.299 35.09 165.912 34.5583 167.122 33.495C168.369 32.395 168.992 30.965 168.992 29.205V24.97C168.992 23.5033 168.497 22.33 167.507 21.45C166.517 20.57 165.216 20.13 163.602 20.13H149.082V35.09H162.282ZM202.619 44.33H185.734L181.774 55H177.594L192.389 16.5H194.259C195.469 16.5 196.349 17.2333 196.899 18.7L205.369 40.92H205.424V41.03L210.759 55H206.579L202.619 44.33ZM186.999 40.92H201.354L194.204 21.78H194.149L186.999 40.92Z" fill="white"/>
</g>
<g filter="url(#filter2_d_414_263)">
<path d="M83.79 20L122.79 20" stroke="white" stroke-width="0.05"/>
</g>
<path d="M83.79 16.8936L122.79 16.8936" stroke="white" stroke-width="0.8"/>
<g filter="url(#filter3_d_414_263)">
<rect x="105.79" y="17" width="5" height="3" fill="white"/>
</g>
<g filter="url(#filter4_d_414_263)">
<path d="M20.06 55C19.3634 55 18.7767 54.7983 18.3 54.395C17.86 53.9917 17.475 53.35 17.145 52.47L4.00004 16.5H8.18004L20.17 50.105H20.225L32.27 16.5H36.45L22.15 55H20.06ZM42.0484 16.5H46.1184V33.77H67.3484V16.5H71.4184V55H67.3484V37.4H46.1184V55H42.0484V16.5ZM83.8119 55C82.6752 55 81.7952 54.6883 81.1719 54.065C80.5486 53.405 80.2369 52.5067 80.2369 51.37V16.5H106.087V20.02H84.3069V33.55H104.437V37.07H84.3069V51.48H106.087V55H83.8119ZM122.675 20.02H110.465V16.5H138.955V20.02H126.745V55H122.675V20.02ZM145.012 16.5H163.712C166.536 16.5 168.791 17.3067 170.477 18.92C172.201 20.4967 173.062 22.5867 173.062 25.19V29.205C173.062 31.1483 172.439 32.8717 171.192 34.375C169.946 35.8417 168.277 36.8867 166.187 37.51V37.565C167.287 38.1517 168.277 39.0867 169.157 40.37C170.074 41.6533 170.771 43.1017 171.247 44.715L174.272 55H170.092L167.067 44.715C166.554 42.9183 165.656 41.47 164.372 40.37C163.126 39.27 161.751 38.72 160.247 38.72H149.082V55H145.012V16.5ZM162.282 35.09C164.299 35.09 165.912 34.5583 167.122 33.495C168.369 32.395 168.992 30.965 168.992 29.205V24.97C168.992 23.5033 168.497 22.33 167.507 21.45C166.517 20.57 165.216 20.13 163.602 20.13H149.082V35.09H162.282ZM202.619 44.33H185.734L181.774 55H177.594L192.389 16.5H194.259C195.469 16.5 196.349 17.2333 196.899 18.7L205.369 40.92H205.424V41.03L210.759 55H206.579L202.619 44.33ZM186.999 40.92H201.354L194.204 21.78H194.149L186.999 40.92Z" fill="white"/>
</g>
<g filter="url(#filter5_d_414_263)">
<path d="M83.79 20L122.79 20" stroke="white" stroke-width="0.05"/>
</g>
<path d="M83.79 16.8936L122.79 16.8936" stroke="white" stroke-width="0.8"/>
<g filter="url(#filter6_d_414_263)">
<rect x="105.79" y="17" width="5" height="3" fill="white"/>
</g>
</g>
<defs>
<filter id="filter0_d_414_263" x="4" y="16.4932" width="214.759" height="46.5068" filterUnits="userSpaceOnUse" color-interpolation-filters="sRGB">
<feFlood flood-opacity="0" result="BackgroundImageFix"/>
<feColorMatrix in="SourceAlpha" type="matrix" values="0 0 0 0 0 0 0 0 0 0 0 0 0 0 0 0 0 0 127 0" result="hardAlpha"/>
<feOffset dx="4" dy="4"/>
<feGaussianBlur stdDeviation="2"/>
<feComposite in2="hardAlpha" operator="out"/>
<feColorMatrix type="matrix" values="0 0 0 0 0 0 0 0 0 0 0 0 0 0 0 0 0 0 0.2 0"/>
<feBlend mode="normal" in2="BackgroundImageFix" result="effect1_dropShadow_414_263"/>
<feBlend mode="normal" in="SourceGraphic" in2="effect1_dropShadow_414_263" result="shape"/>
</filter>
<filter id="filter1_d_414_263" x="0" y="16.5" width="214.759" height="46.5" filterUnits="userSpaceOnUse" color-interpolation-filters="sRGB">
<feFlood flood-opacity="0" result="BackgroundImageFix"/>
<feColorMatrix in="SourceAlpha" type="matrix" values="0 0 0 0 0 0 0 0 0 0 0 0 0 0 0 0 0 0 127 0" result="hardAlpha"/>
<feOffset dy="4"/>
<feGaussianBlur stdDeviation="2"/>
<feComposite in2="hardAlpha" operator="out"/>
<feColorMatrix type="matrix" values="0 0 0 0 0 0 0 0 0 0 0 0 0 0 0 0 0 0 0.25 0"/>
<feBlend mode="normal" in2="BackgroundImageFix" result="effect1_dropShadow_414_263"/>
<feBlend mode="normal" in="SourceGraphic" in2="effect1_dropShadow_414_263" result="shape"/>
</filter>
<filter id="filter2_d_414_263" x="79.79" y="19.9746" width="47" height="8.05078" filterUnits="userSpaceOnUse" color-interpolation-filters="sRGB">
<feFlood flood-opacity="0" result="BackgroundImageFix"/>
<feColorMatrix in="SourceAlpha" type="matrix" values="0 0 0 0 0 0 0 0 0 0 0 0 0 0 0 0 0 0 127 0" result="hardAlpha"/>
<feOffset dy="4"/>
<feGaussianBlur stdDeviation="2"/>
<feComposite in2="hardAlpha" operator="out"/>
<feColorMatrix type="matrix" values="0 0 0 0 0 0 0 0 0 0 0 0 0 0 0 0 0 0 0.25 0"/>
<feBlend mode="normal" in2="BackgroundImageFix" result="effect1_dropShadow_414_263"/>
<feBlend mode="normal" in="SourceGraphic" in2="effect1_dropShadow_414_263" result="shape"/>
</filter>
<filter id="filter3_d_414_263" x="101.79" y="17" width="13" height="11" filterUnits="userSpaceOnUse" color-interpolation-filters="sRGB">
<feFlood flood-opacity="0" result="BackgroundImageFix"/>
<feColorMatrix in="SourceAlpha" type="matrix" values="0 0 0 0 0 0 0 0 0 0 0 0 0 0 0 0 0 0 127 0" result="hardAlpha"/>
<feOffset dy="4"/>
<feGaussianBlur stdDeviation="2"/>
<feComposite in2="hardAlpha" operator="out"/>
<feColorMatrix type="matrix" values="0 0 0 0 0 0 0 0 0 0 0 0 0 0 0 0 0 0 0.25 0"/>
<feBlend mode="normal" in2="BackgroundImageFix" result="effect1_dropShadow_414_263"/>
<feBlend mode="normal" in="SourceGraphic" in2="effect1_dropShadow_414_263" result="shape"/>
</filter>
<filter id="filter4_d_414_263" x="0" y="16.5" width="214.759" height="46.5" filterUnits="userSpaceOnUse" color-interpolation-filters="sRGB">
<feFlood flood-opacity="0" result="BackgroundImageFix"/>
<feColorMatrix in="SourceAlpha" type="matrix" values="0 0 0 0 0 0 0 0 0 0 0 0 0 0 0 0 0 0 127 0" result="hardAlpha"/>
<feOffset dy="4"/>
<feGaussianBlur stdDeviation="2"/>
<feComposite in2="hardAlpha" operator="out"/>
<feColorMatrix type="matrix" values="0 0 0 0 0 0 0 0 0 0 0 0 0 0 0 0 0 0 0.25 0"/>
<feBlend mode="normal" in2="BackgroundImageFix" result="effect1_dropShadow_414_263"/>
<feBlend mode="normal" in="SourceGraphic" in2="effect1_dropShadow_414_263" result="shape"/>
</filter>
<filter id="filter5_d_414_263" x="79.79" y="19.9746" width="47" height="8.05078" filterUnits="userSpaceOnUse" color-interpolation-filters="sRGB">
<feFlood flood-opacity="0" result="BackgroundImageFix"/>
<feColorMatrix in="SourceAlpha" type="matrix" values="0 0 0 0 0 0 0 0 0 0 0 0 0 0 0 0 0 0 127 0" result="hardAlpha"/>
<feOffset dy="4"/>
<feGaussianBlur stdDeviation="2"/>
<feComposite in2="hardAlpha" operator="out"/>
<feColorMatrix type="matrix" values="0 0 0 0 0 0 0 0 0 0 0 0 0 0 0 0 0 0 0.25 0"/>
<feBlend mode="normal" in2="BackgroundImageFix" result="effect1_dropShadow_414_263"/>
<feBlend mode="normal" in="SourceGraphic" in2="effect1_dropShadow_414_263" result="shape"/>
</filter>
<filter id="filter6_d_414_263" x="101.79" y="17" width="13" height="11" filterUnits="userSpaceOnUse" color-interpolation-filters="sRGB">
<feFlood flood-opacity="0" result="BackgroundImageFix"/>
<feColorMatrix in="SourceAlpha" type="matrix" values="0 0 0 0 0 0 0 0 0 0 0 0 0 0 0 0 0 0 127 0" result="hardAlpha"/>
<feOffset dy="4"/>
<feGaussianBlur stdDeviation="2"/>
<feComposite in2="hardAlpha" operator="out"/>
<feColorMatrix type="matrix" values="0 0 0 0 0 0 0 0 0 0 0 0 0 0 0 0 0 0 0.25 0"/>
<feBlend mode="normal" in2="BackgroundImageFix" result="effect1_dropShadow_414_263"/>
<feBlend mode="normal" in="SourceGraphic" in2="effect1_dropShadow_414_263" result="shape"/>
</filter>
</defs>
</svg>
